<svg width="40" height="40" viewBox="0 0 40 40" fill="none" xmlns="http://www.w3.org/2000/svg">
<path opacity="0.1" d="M0 20C0 8.95431 8.95431 0 20 0C31.0457 0 40 8.95431 40 20C40 31.0457 31.0457 40 20 40C8.95431 40 0 31.0457 0 20Z" fill="#4D44B5"/>
<path d="M28 12H12C11.2044 12 10.4413 12.3161 9.87868 12.8787C9.31607 13.4413 9 14.2044 9 15V25C9 25.7956 9.31607 26.5587 9.87868 27.1213C10.4413 27.6839 11.2044 28 12 28H28C28.7956 28 29.5587 27.6839 30.1213 27.1213C30.6839 26.5587 31 25.7956 31 25V15C31 14.2044 30.6839 13.4413 30.1213 12.8787C29.5587 12.3161 28.7956 12 28 12ZM29 24.75L24.1 20.35L29 16.92V24.75ZM11 16.92L15.9 20.35L11 24.75V16.92ZM17.58 21.53L19.43 22.82C19.5974 22.9361 19.7963 22.9984 20 22.9984C20.2037 22.9984 20.4026 22.9361 20.57 22.82L22.42 21.53L27.42 26H12.6L17.58 21.53ZM12 14H28C28.1857 14.0015 28.3674 14.0547 28.5245 14.1536C28.6817 14.2525 28.8083 14.3932 28.89 14.56L20 20.78L11.11 14.56C11.1917 14.3932 11.3183 14.2525 11.4755 14.1536C11.6326 14.0547 11.8143 14.0015 12 14Z" fill="#4D44B5"/>
</svg>
