<svg width="40" height="40" viewBox="0 0 40 40" fill="none" xmlns="http://www.w3.org/2000/svg">
<path opacity="0.1" d="M0 20C0 8.95431 8.95431 0 20 0C31.0457 0 40 8.95431 40 20C40 31.0457 31.0457 40 20 40C8.95431 40 0 31.0457 0 20Z" fill="#4D44B5"/>
<path d="M27.4401 21C27.2201 21 26.9901 20.93 26.7701 20.88C26.3246 20.7818 25.8868 20.6515 25.4601 20.49C24.9962 20.3212 24.4862 20.33 24.0284 20.5146C23.5706 20.6992 23.1972 21.0466 22.9801 21.49L22.7601 21.94C21.7861 21.3982 20.8911 20.7252 20.1001 19.94C19.3149 19.149 18.6419 18.254 18.1001 17.28L18.5201 17C18.9635 16.7829 19.3109 16.4095 19.4955 15.9517C19.6801 15.4939 19.6889 14.9839 19.5201 14.52C19.3613 14.0924 19.231 13.6548 19.1301 13.21C19.0801 12.99 19.0401 12.76 19.0101 12.53C18.8887 11.8256 18.5197 11.1877 17.9697 10.7312C17.4197 10.2747 16.7248 10.0296 16.0101 10.04H13.0101C12.5791 10.036 12.1524 10.1248 11.7588 10.3005C11.3653 10.4763 11.0142 10.7347 10.7295 11.0583C10.4449 11.3819 10.2332 11.763 10.1091 12.1757C9.98494 12.5884 9.95118 13.0231 10.0101 13.45C10.5428 17.6394 12.4561 21.5319 15.4478 24.5126C18.4394 27.4934 22.3388 29.3925 26.5301 29.91H26.9101C27.6475 29.9111 28.3595 29.6405 28.9101 29.15C29.2265 28.867 29.4792 28.5202 29.6516 28.1323C29.8239 27.7445 29.9121 27.3244 29.9101 26.9V23.9C29.8979 23.2054 29.6449 22.5366 29.1944 22.0077C28.744 21.4788 28.1239 21.1226 27.4401 21ZM27.9401 27C27.9399 27.142 27.9095 27.2823 27.8509 27.4116C27.7923 27.5409 27.7068 27.6563 27.6001 27.75C27.4884 27.8465 27.3577 27.9185 27.2165 27.9616C27.0753 28.0047 26.9267 28.0177 26.7801 28C23.035 27.5198 19.5563 25.8065 16.8928 23.1303C14.2293 20.4541 12.5325 16.9673 12.0701 13.22C12.0542 13.0735 12.0681 12.9253 12.1111 12.7844C12.1541 12.6435 12.2252 12.5127 12.3201 12.4C12.4138 12.2933 12.5292 12.2078 12.6585 12.1492C12.7878 12.0906 12.9281 12.0602 13.0701 12.06H16.0701C16.3026 12.0548 16.5297 12.1309 16.7122 12.2751C16.8948 12.4193 17.0213 12.6226 17.0701 12.85C17.1101 13.1233 17.1601 13.3933 17.2201 13.66C17.3356 14.1871 17.4894 14.7052 17.6801 15.21L16.2801 15.86C16.1604 15.9149 16.0527 15.993 15.9633 16.0896C15.8738 16.1863 15.8043 16.2996 15.7588 16.4232C15.7132 16.5468 15.6926 16.6781 15.6979 16.8097C15.7033 16.9413 15.7346 17.0706 15.7901 17.19C17.2293 20.2728 19.7073 22.7508 22.7901 24.19C23.0336 24.29 23.3066 24.29 23.5501 24.19C23.6748 24.1454 23.7894 24.0765 23.8873 23.9872C23.9851 23.8979 24.0643 23.7901 24.1201 23.67L24.7401 22.27C25.2571 22.4549 25.7847 22.6085 26.3201 22.73C26.5868 22.79 26.8568 22.84 27.1301 22.88C27.3575 22.9288 27.5608 23.0553 27.705 23.2379C27.8492 23.4204 27.9253 23.6475 27.9201 23.88L27.9401 27Z" fill="#4D44B5"/>
</svg>
