<svg width="160" height="160" viewBox="0 0 160 160" fill="none" xmlns="http://www.w3.org/2000/svg">
<g filter="url(#filter0_d_16_80)">
<path d="M50 60C50 43.4315 63.4315 30 80 30C96.5685 30 110 43.4315 110 60C110 76.5685 96.5685 90 80 90C63.4315 90 50 76.5685 50 60Z" fill="white"/>
</g>
<path d="M76.2629 46.6667L75.4166 50.4662C74.9352 50.6978 74.4751 50.9646 74.0338 51.2656L70.3202 50.0964L66.5833 56.5703L69.3984 59.1484C69.2884 59.9648 69.3382 60.3672 69.3984 60.8516L66.5833 63.4297L70.3202 69.9037L74.0338 68.7344C74.4751 69.0354 74.9352 69.3022 75.4166 69.5339L76.2629 73.3333H83.7369L84.5833 69.5339C85.0646 69.3022 85.5248 69.0354 85.9661 68.7344L89.6796 69.9037L93.4166 63.4297L90.6015 60.8516C90.6245 60.5682 90.6663 60.2845 90.6666 60C90.6677 59.7069 90.6215 59.4108 90.6015 59.1484L93.4166 56.5703L89.6796 50.0964L85.9661 51.2656C85.5248 50.9646 85.0646 50.6978 84.5833 50.4662L83.7369 46.6667H76.2629ZM78.4036 49.3333H81.5963L82.2551 52.2917L82.9166 52.5521C83.6648 52.8451 84.3643 53.2485 84.9921 53.75L85.5494 54.1927L88.44 53.2839L90.0364 56.0495L87.802 58.099L87.9088 58.8021C88.0344 59.5797 88.01 60.4746 87.9088 61.1979L87.802 61.901L90.0364 63.9505L88.44 66.7162L85.5494 65.8073L84.9921 66.25C84.3643 66.7516 83.6648 67.1549 82.9166 67.4479L82.2551 67.7083L81.5963 70.6667H78.4036L77.7447 67.7083L77.0833 67.4479C76.335 67.1549 75.6356 66.7516 75.0077 66.25L74.4504 65.8073L71.5598 66.7162L69.9635 63.9505L72.1978 61.901L72.0911 61.1979C71.9608 60.4046 71.9808 59.4967 72.0911 58.8021L72.1978 58.099L69.9635 56.0495L71.5598 53.2839L74.4504 54.1927L75.0077 53.75C75.6356 53.2485 76.335 52.8451 77.0833 52.5521L77.7447 52.2917L78.4036 49.3333ZM79.9999 54.6667C77.0702 54.6667 74.6666 57.0703 74.6666 60C74.6666 62.9297 77.0702 65.3333 79.9999 65.3333C82.9296 65.3333 85.3333 62.9297 85.3333 60C85.3333 57.0703 82.9296 54.6667 79.9999 54.6667ZM79.9999 57.3333C81.4885 57.3333 82.6666 58.5115 82.6666 60C82.6666 61.4886 81.4885 62.6667 79.9999 62.6667C78.5114 62.6667 77.3333 61.4886 77.3333 60C77.3333 58.5115 78.5114 57.3333 79.9999 57.3333Z" fill="#A098AE"/>
<defs>
<filter id="filter0_d_16_80" x="0" y="0" width="160" height="160" filterUnits="userSpaceOnUse" color-interpolation-filters="sRGB">
<feFlood flood-opacity="0" result="BackgroundImageFix"/>
<feColorMatrix in="SourceAlpha" type="matrix" values="0 0 0 0 0 0 0 0 0 0 0 0 0 0 0 0 0 0 127 0" result="hardAlpha"/>
<feOffset dy="20"/>
<feGaussianBlur stdDeviation="25"/>
<feColorMatrix type="matrix" values="0 0 0 0 0.74902 0 0 0 0 0.0823529 0 0 0 0 0.423529 0 0 0 0.05 0"/>
<feBlend mode="normal" in2="BackgroundImageFix" result="effect1_dropShadow_16_80"/>
<feBlend mode="normal" in="SourceGraphic" in2="effect1_dropShadow_16_80" result="shape"/>
</filter>
</defs>
</svg>
